<svg xmlns="http://www.w3.org/2000/svg" enable-background="new 0 0 24 24" height="18px" viewBox="0 0 24 24" width="18px" fill="#000000">

    <symbol id="not-pinned" viewBox="0 0 24 24" >
        <g><rect fill="none" height="24" width="24"/></g><g><path d="M14,4v5c0,1.12,0.37,2.16,1,3H9c0.65-0.86,1-1.9,1-3V4H14 M17,2H7C6.45,2,6,2.45,6,3c0,0.55,0.45,1,1,1c0,0,0,0,0,0l1,0v5 c0,1.66-1.34,3-3,3v2h5.97v7l1,1l1-1v-7H19v-2c0,0,0,0,0,0c-1.66,0-3-1.34-3-3V4l1,0c0,0,0,0,0,0c0.55,0,1-0.45,1-1 C18,2.45,17.55,2,17,2L17,2z"/></g>
    </symbol>
    <symbol id="delete" viewBox="0 0 24 24" >
        <path d="M0 0h24v24H0z" fill="none"/>
        <path d="M6 19c0 1.1.9 2 2 2h8c1.1 0 2-.9 2-2V7H6v12zM19 4h-3.5l-1-1h-5l-1 1H5v2h14V4z"/>
    </symbol>
    <symbol id="edit" viewBox="0 0 24 24" >
        <path d="M0 0h24v24H0z" fill="none"/>
        <path d="M3 17.25V21h3.75L17.81 9.94l-3.75-3.75L3 17.25zM20.71 7.04c.39-.39.39-1.02 0-1.41l-2.34-2.34c-.39-.39-1.02-.39-1.41 0l-1.83 1.83 3.75 3.75 1.83-1.83z"/>
    </symbol>
    <symbol id="pinned" viewBox="0 0 24 24" >
        <g><rect fill="none" height="24" width="24"/></g><g><path d="M16,9V4l1,0c0.55,0,1-0.45,1-1v0c0-0.55-0.45-1-1-1H7C6.45,2,6,2.45,6,3v0 c0,0.55,0.45,1,1,1l1,0v5c0,1.66-1.34,3-3,3h0v2h5.97v7l1,1l1-1v-7H19v-2h0C17.34,12,16,10.66,16,9z" fill-rule="evenodd"/></g>
    </symbol>
</svg>